<?xml version="1.0" standalone="no"?>
<!DOCTYPE svg PUBLIC "-//W3C//DTD SVG 20010904//EN"
 "http://www.w3.org/TR/2001/REC-SVG-20010904/DTD/svg10.dtd">
<svg version="1.0" xmlns="http://www.w3.org/2000/svg"
 width="819.000000pt" height="623.000000pt" viewBox="0 0 819.000000 623.000000"
 preserveAspectRatio="xMidYMid meet">

<g transform="translate(0.000000,623.000000) scale(0.100000,-0.100000)"
fill="#000000" stroke="none">
<path d="M4078 5556 c-103 -27 -173 -105 -185 -204 -7 -66 2 -112 33 -158 l25
-37 -73 -75 c-136 -138 -247 -218 -429 -308 -185 -92 -477 -170 -706 -189 -37
-3 -84 -8 -105 -10 l-36 -5 5 60 c10 107 -45 197 -151 246 -150 70 -312 -16
-346 -183 -19 -91 7 -172 75 -231 61 -54 93 -67 171 -66 l72 0 -5 -41 c-38
-346 -94 -538 -234 -805 -77 -146 -126 -219 -234 -347 l-86 -103 -41 28 c-37
24 -50 27 -128 27 -79 0 -91 -3 -135 -30 -126 -78 -149 -238 -53 -371 60 -83
189 -109 297 -59 l54 26 40 -38 c74 -72 203 -241 264 -350 120 -208 204 -448
243 -692 12 -69 23 -138 26 -152 l5 -26 -73 1 c-83 1 -119 -14 -181 -73 -60
-56 -81 -104 -81 -186 1 -80 16 -124 65 -180 72 -81 188 -106 284 -61 124 57
196 217 150 330 -7 16 -5 18 16 13 13 -3 85 -13 159 -22 213 -25 349 -52 461
-91 261 -90 442 -195 624 -362 l68 -62 -22 -49 c-46 -109 -13 -228 80 -287
168 -106 384 7 383 201 0 39 -6 72 -18 95 l-19 34 69 66 c199 188 449 317 786
404 157 41 232 53 391 62 l117 7 -15 -36 c-18 -44 -19 -115 -3 -171 18 -58 90
-128 151 -145 61 -17 151 -10 204 18 124 63 176 226 112 353 -48 97 -108 132
-221 133 l-78 0 5 30 c2 17 9 66 15 110 28 204 110 483 186 635 92 184 191
325 300 431 l69 66 34 -24 c68 -46 155 -52 241 -17 148 62 195 274 87 391 -59
64 -108 87 -187 87 -66 0 -113 -17 -139 -48 -8 -9 -19 -16 -25 -16 -21 0 -205
210 -271 310 -148 222 -261 540 -300 847 -8 67 -15 126 -15 131 0 5 25 7 55 4
72 -6 132 17 188 71 128 125 110 316 -39 403 -70 41 -172 46 -240 11 -56 -28
-109 -83 -130 -133 -8 -19 -14 -63 -14 -99 0 -78 24 -74 -241 -40 -224 30
-311 50 -452 106 -224 89 -386 191 -549 349 l-99 96 25 54 c30 63 35 150 12
204 -45 109 -174 172 -288 142z m-46 -867 l-3 -211 -51 -60 c-65 -75 -175
-158 -258 -197 -58 -27 -233 -79 -345 -102 -22 -4 -100 -8 -173 -9 -132 0
-134 0 -175 30 -23 16 -84 71 -135 123 l-92 94 87 6 c136 9 328 55 508 122
230 85 395 186 545 332 47 45 87 83 90 83 3 0 4 -95 2 -211z m439 16 c99 -74
323 -191 454 -238 167 -59 394 -107 508 -107 l48 0 -127 -127 -127 -128 -123
0 -124 0 52 -18 c72 -24 182 -107 219 -165 46 -72 58 -132 69 -327 5 -99 14
-198 21 -220 24 -85 109 -234 167 -296 l34 -37 -106 -4 c-57 -2 -107 -6 -109
-8 -2 -3 -7 -53 -10 -112 l-6 -108 115 0 c63 0 114 -3 114 -6 0 -4 -17 -25
-38 -48 -47 -51 -110 -174 -150 -291 -30 -86 -31 -96 -30 -250 1 -147 -1 -166
-24 -232 -14 -40 -47 -102 -73 -138 -41 -58 -45 -68 -32 -78 9 -7 72 -64 141
-127 l125 -115 -37 -3 c-200 -15 -572 -131 -821 -257 -133 -66 -215 -125 -299
-214 l-53 -56 5 49 c3 27 6 113 6 192 l0 144 71 80 c78 89 106 109 259 187 57
29 108 57 112 61 5 5 -24 26 -64 48 -40 21 -93 60 -118 85 l-44 47 -76 -58
c-41 -32 -84 -67 -95 -80 -48 -54 -51 -49 -47 85 6 166 0 193 -43 211 -19 8
-54 14 -78 14 -89 0 -116 -64 -104 -246 2 -46 3 -84 0 -84 -3 0 -26 19 -51 41
-26 23 -71 55 -99 71 -29 17 -56 34 -59 39 -8 14 -24 10 -24 -6 0 -45 -104
-146 -167 -161 -34 -9 -28 -20 20 -39 59 -23 195 -108 237 -147 19 -18 55 -57
80 -87 l45 -55 6 -190 c3 -105 5 -193 3 -195 -2 -2 -14 8 -25 24 -38 47 -195
172 -282 223 -236 140 -562 250 -794 268 -46 4 -83 10 -83 14 0 14 228 226
266 248 15 8 12 14 -23 46 -44 40 -95 127 -113 196 -7 25 -15 133 -19 240 l-6
195 -39 79 c-48 100 -119 217 -146 241 -41 37 -27 43 91 37 l112 -5 -8 29 c-5
16 -10 66 -11 112 -1 46 -4 85 -6 88 -3 2 -48 5 -100 6 l-95 1 53 70 c29 39
74 109 100 156 l47 86 8 200 c7 217 14 249 65 341 64 116 169 183 321 204 102
15 148 10 240 -26 50 -20 80 -40 114 -76 l47 -50 33 18 c53 26 202 131 229
159 13 14 26 25 29 25 3 0 7 -75 8 -166 1 -103 6 -178 14 -196 24 -59 124 -79
176 -34 l28 24 0 190 0 190 55 -51 c30 -29 99 -78 152 -110 l97 -58 63 64 c76
77 143 106 246 108 l67 2 -75 7 c-53 5 -108 20 -184 50 -167 67 -285 145 -370
245 l-46 53 0 219 1 218 57 -64 c31 -36 100 -97 153 -136z m1244 -910 c59
-193 186 -449 284 -572 22 -28 69 -82 103 -119 l63 -67 -79 6 c-43 4 -121 7
-172 7 l-92 0 -74 88 c-91 109 -157 220 -198 337 -62 179 -88 336 -75 470 6
69 9 76 52 122 24 26 59 68 76 91 l32 44 26 -159 c14 -87 39 -198 54 -248z
m-2961 273 c43 -56 44 -60 51 -153 9 -116 2 -177 -36 -325 -37 -148 -94 -262
-209 -422 l-92 -128 -164 0 c-90 0 -164 4 -164 8 0 5 14 21 31 38 55 52 186
246 262 387 83 153 164 395 193 577 9 52 18 106 21 120 l5 25 29 -35 c16 -19
49 -61 73 -92z m-247 -1325 c195 -259 264 -438 327 -848 4 -27 -6 -41 -95
-135 -98 -104 -99 -105 -99 -72 0 46 -36 219 -67 322 -39 128 -105 286 -163
389 -49 87 -182 272 -266 369 l-37 42 175 0 174 0 51 -67z m3598 -15 c-87 -94
-202 -263 -264 -387 -86 -170 -136 -329 -192 -608 -7 -35 -16 -63 -19 -63 -6
0 -138 142 -172 186 -17 20 -17 28 2 144 30 181 75 354 111 424 65 126 130
223 199 298 81 88 63 83 293 86 l119 2 -77 -82z"/>
<path d="M3326 3888 c-50 -14 -113 -76 -148 -148 l-28 -55 1 -815 c0 -597 4
-824 12 -847 21 -56 75 -121 119 -145 55 -29 156 -31 213 -5 47 21 99 86 114
142 7 25 11 157 11 350 l0 310 520 3 520 3 0 -332 c0 -316 1 -335 21 -375 55
-115 173 -153 294 -95 63 30 85 53 131 141 l29 55 0 815 0 815 -27 45 c-35 60
-73 94 -132 121 -117 51 -217 11 -294 -120 l-27 -46 0 -293 0 -292 -521 0
-520 0 0 304 1 304 -41 59 c-62 87 -156 126 -248 101z"/>
</g>
</svg>
